<svg width="40" height="64" viewBox="0 0 40 64" fill="none" xmlns="http://www.w3.org/2000/svg">
<path d="M18.6705 14.4154C17.9586 14.7765 17.4828 15.4222 17.315 16.1458C17.5795 15.9145 17.884 15.7074 18.221 15.5368C19.8002 14.7365 21.5672 14.9906 22.3592 16.0761C22.3129 15.9014 22.248 15.726 22.1617 15.5568C21.5126 14.2787 19.9493 13.7663 18.6705 14.4154Z" fill="#00C0F1"/>
<path d="M17.0961 13.8314C16.9463 13.7927 16.7895 13.7692 16.6266 13.763C15.4071 13.7181 14.3796 14.6703 14.3341 15.8905C14.3078 16.5713 14.5923 17.1914 15.0619 17.6154C14.999 17.3226 14.9707 17.0105 14.9832 16.6894C15.0398 15.1827 15.9595 13.9708 17.0961 13.8314Z" fill="#00C0F1"/>
<path d="M13.2824 16.3235C13.1885 16.4057 13.1008 16.4982 13.0221 16.6031C12.4303 17.3924 12.5898 18.5131 13.3791 19.1042C13.8189 19.4343 14.3624 19.5316 14.8588 19.4142C14.6365 19.321 14.4155 19.1974 14.2084 19.0407C13.2334 18.3108 12.8529 17.1417 13.2824 16.3235Z" fill="#00C0F1"/>
<path d="M25.2504 24.2153C26.4899 22.3999 26.0217 19.9217 24.2056 18.6829C23.1927 17.9917 21.9753 17.8322 20.8801 18.1395C21.3856 18.3252 21.8876 18.5807 22.3675 18.9073C24.6082 20.4361 25.5715 22.9986 24.6973 24.8644C24.901 24.6731 25.086 24.4542 25.2504 24.2153Z" fill="#00C0F1"/>
<path d="M16.2958 31.193C16.6569 31.3015 17.0353 31.374 17.4268 31.4037C20.3809 31.6364 22.9655 29.4288 23.1968 26.4748C23.3266 24.8272 22.6975 23.2943 21.6031 22.2212C21.7267 22.9366 21.7646 23.6947 21.7032 24.475C21.4166 28.1203 19.0647 30.9645 16.2958 31.193Z" fill="#00C0F1"/>
<path d="M15.5121 30.5529C17.2791 29.4571 18.3653 27.6776 18.6401 25.769C18.0049 26.4271 17.2646 27.0306 16.4284 27.5478C12.5153 29.9715 7.88054 29.7029 5.58734 27.0644C5.74616 27.5112 5.95608 27.949 6.21502 28.3681C8.17884 31.5383 12.3426 32.5174 15.5121 30.5529Z" fill="#00C0F1"/>
<path d="M13.4398 25.8946C12.3384 25.8449 11.2046 25.6529 10.0694 25.3097C4.76073 23.6995 1.31437 19.2905 1.87714 15.115C1.59817 15.6135 1.36892 16.1521 1.19629 16.7211C-0.108782 21.021 2.31976 25.568 6.62097 26.8738C9.01844 27.5995 11.4932 27.1665 13.4398 25.8946Z" fill="#00C0F1"/>
<path d="M9.14141 22.1196C8.3563 21.0948 7.67131 19.9355 7.12373 18.6622C4.56261 12.6961 5.90704 6.28676 10.0688 3.64209C9.4114 3.76984 8.75886 3.96801 8.11876 4.24284C3.28585 6.31852 1.04927 11.922 3.12496 16.7543C4.28157 19.4493 6.5361 21.3358 9.14141 22.1196Z" fill="#00C0F1"/>
<path d="M9.10963 15.6882C9.36305 14.2312 9.80843 12.7542 10.4568 11.3048C13.4985 4.51841 19.9445 0.677769 25.4023 2.13268C24.7857 1.67694 24.1097 1.28128 23.3819 0.955356C17.8819 -1.50702 11.4263 0.954665 8.96393 6.45392C7.58981 9.5205 7.74793 12.884 9.10963 15.6882Z" fill="#00C0F1"/>
<path d="M38.0276 12.5437C37.893 11.8677 37.701 11.1938 37.4441 10.5281C35.0066 4.19124 27.8902 1.028 21.5526 3.4669C18.0172 4.82583 15.4706 7.64174 14.3319 10.9638C15.6902 10.0005 17.221 9.17538 18.8934 8.53113C26.3517 5.66135 34.1566 7.39937 37.6444 12.3366C38.0041 13.2839 40.3429 19.9868 37.4186 26.6841C37.1886 27.1156 31.7757 37.2862 31.224 38.7439C31.215 38.7681 30.3228 41.1931 30.1592 43.0603C30.1592 43.0997 30.1226 46.8816 28.3901 48.92H11.4014V49.5995H28.5206C30.3698 47.5507 30.4499 43.2094 30.4499 43.0582C30.6094 41.2408 31.4877 38.862 31.496 38.8385C32.0415 37.3981 37.6195 26.9216 37.6803 26.8063C40.4271 20.5136 38.6076 14.2223 38.0276 12.5437Z" fill="#00C0F1"/>
<path d="M28.5144 51.1827C28.5144 51.6992 28.0241 52.117 27.4178 52.117H12.4965C11.8909 52.117 11.4014 51.6999 11.4014 51.1827V51.0087C11.4014 50.4971 11.8903 50.0786 12.4965 50.0786H27.4178C28.0241 50.0786 28.5144 50.4964 28.5144 51.0087V51.1827Z" fill="#00C0F1"/>
<path d="M28.5144 53.9572C28.5144 54.4723 28.0241 54.8901 27.4178 54.8901H12.4965C11.8909 54.8901 11.4014 54.473 11.4014 53.9572V53.7846C11.4014 53.2701 11.8903 52.8538 12.4965 52.8538H27.4178C28.0241 52.8538 28.5144 53.2701 28.5144 53.7846V53.9572Z" fill="#00C0F1"/>
<path d="M28.355 56.7302C28.355 57.2357 27.873 57.6445 27.2791 57.6445H12.6361C12.0422 57.6445 11.5616 57.2357 11.5616 56.7302V56.5624C11.5616 56.057 12.0422 55.6482 12.6361 55.6482H27.2791C27.8723 55.6482 28.355 56.057 28.355 56.5624V56.7302Z" fill="#00C0F1"/>
<path d="M27.6409 59.3376C27.6409 59.7996 27.2018 60.1752 26.6604 60.1752H13.2568C12.7134 60.1752 12.2722 59.7996 12.2722 59.3376V59.1815C12.2722 58.7168 12.7134 58.3433 13.2568 58.3433H26.6611C27.2025 58.3433 27.6416 58.7168 27.6416 59.1815L27.6409 59.3376Z" fill="#00C0F1"/>
<path d="M26.1675 61.7702C26.1675 62.1431 25.8111 62.4455 25.3727 62.4455H14.542C14.1042 62.4455 13.7479 62.1431 13.7479 61.7702V61.6445C13.7479 61.2689 14.1042 60.9685 14.542 60.9685H25.372C25.8111 60.9685 26.1668 61.2689 26.1668 61.6445L26.1675 61.7702Z" fill="#00C0F1"/>
<path d="M23.8825 63.5705C23.8825 63.8073 23.6574 64 23.3805 64H16.534C16.2592 64 16.0334 63.8073 16.0334 63.5705V63.4938C16.0334 63.2556 16.2592 63.0664 16.534 63.0664H23.3805C23.6567 63.0664 23.8825 63.2556 23.8825 63.4938V63.5705Z" fill="#00C0F1"/>
</svg>
