<svg width="64" height="58" viewBox="0 0 64 58" fill="none" xmlns="http://www.w3.org/2000/svg">
<path d="M63.7199 55.8135C63.7199 55.8135 47.6335 39.1417 47.6242 39.1319C47.2749 38.7748 46.8041 38.5621 46.3052 38.5361C45.8063 38.5102 45.316 38.6729 44.9316 38.9919L43.0385 37.0983C46.2951 32.2414 47.6249 26.3452 46.7683 20.5607C45.9118 14.7761 42.9302 9.51834 38.4058 5.8137C33.8813 2.10906 28.1387 0.223453 22.2988 0.524944C16.4589 0.826436 10.941 3.29339 6.8221 7.44425C2.7032 11.5951 0.278967 17.132 0.0226195 22.974C-0.233728 28.816 1.69621 34.5439 5.4357 39.0396C9.1752 43.5353 14.4558 46.4761 20.2469 47.2879C26.0379 48.0998 31.9236 46.7244 36.7552 43.4303L38.5668 45.243C38.2185 45.6178 38.0268 46.1116 38.0309 46.6232C38.035 47.1348 38.2346 47.6255 38.5888 47.9946L46.1281 55.7832C46.2193 55.8778 46.3282 55.9534 46.4486 56.0058C46.569 56.0582 46.6986 56.0864 46.8299 56.0886C46.9612 56.0909 47.0916 56.0673 47.2138 56.019C47.3359 55.9708 47.4474 55.899 47.5417 55.8077C47.6361 55.7163 47.7115 55.6073 47.7637 55.4867C47.8158 55.3662 47.8437 55.2366 47.8457 55.1053C47.8477 54.974 47.8238 54.8435 47.7753 54.7215C47.7268 54.5994 47.6548 54.4881 47.5632 54.394L40.0244 46.5996L42.3716 44.2825L45.3115 47.2229C45.499 47.4098 45.753 47.5146 46.0177 47.5144C46.2824 47.5141 46.5362 47.4088 46.7234 47.2216C46.9105 47.0344 47.0157 46.7806 47.0159 46.5159C47.016 46.2512 46.9111 45.9972 46.7242 45.8098L43.794 42.8796L46.1857 40.5192C46.1857 40.5192 62.278 57.1969 62.2819 57.2008C62.4659 57.3915 62.718 57.5013 62.983 57.506C63.2479 57.5108 63.5039 57.4101 63.6946 57.2262C63.8853 57.0422 63.9951 56.79 63.9998 56.5251C64.0046 56.2601 63.9039 56.0042 63.7199 55.8135ZM2.06179 24.0371C2.06208 19.7891 3.32203 15.6366 5.6823 12.1047C8.04258 8.57274 11.3972 5.82001 15.3219 4.19458C19.2466 2.56915 23.5652 2.14402 27.7315 2.97294C31.8978 3.80186 35.7248 5.84762 38.7285 8.8515C41.7322 11.8554 43.7777 15.6825 44.6063 19.8489C45.4349 24.0153 45.0095 28.3338 43.3838 32.2584C41.7581 36.183 39.0051 39.5374 35.473 41.8975C31.9409 44.2575 27.7883 45.5171 23.5403 45.5171C17.8457 45.5104 12.3862 43.2451 8.35963 39.2183C4.33304 35.1914 2.06813 29.7318 2.06179 24.0371ZM41.8375 38.7236L43.4955 40.3821L39.9849 43.8352L38.3712 42.2211C39.6452 41.1791 40.807 40.0069 41.8375 38.7236Z" fill="#05E6BC"/>
<path d="M13.5503 24.0371C13.5504 26.0129 14.1364 27.9443 15.2341 29.5871C16.3319 31.2299 17.8922 32.5103 19.7176 33.2664C21.5431 34.0224 23.5517 34.2202 25.4895 33.8347C27.4274 33.4492 29.2074 32.4977 30.6045 31.1005C32.0016 29.7034 32.953 27.9233 33.3384 25.9854C33.7238 24.0476 33.526 22.0389 32.7698 20.2135C32.0137 18.3881 30.7333 16.8279 29.0904 15.7302C27.4476 14.6325 25.5161 14.0466 23.5403 14.0466C20.8917 14.0497 18.3524 15.1033 16.4796 16.9762C14.6067 18.8491 13.5533 21.3885 13.5503 24.0371ZM31.5323 24.0371C31.5322 25.6178 31.0634 27.1629 30.1852 28.4771C29.307 29.7913 28.0588 30.8156 26.5984 31.4204C25.1381 32.0253 23.5311 32.1835 21.9809 31.8751C20.4306 31.5666 19.0066 30.8054 17.8889 29.6877C16.7713 28.57 16.0102 27.1459 15.7018 25.5957C15.3935 24.0454 15.5518 22.4385 16.1567 20.9781C16.7616 19.5178 17.786 18.2697 19.1002 17.3915C20.4145 16.5133 21.9597 16.0446 23.5403 16.0446C25.6593 16.0471 27.6907 16.8899 29.189 18.3883C30.6873 19.8867 31.53 21.9182 31.5323 24.0371Z" fill="#05E6BC"/>
<path d="M20.5433 9.35247V7.32324C17.1324 7.94099 13.9914 9.58543 11.5403 12.0366C9.08926 14.4879 7.44504 17.629 6.82753 21.04H8.85675C9.44968 18.1631 10.8725 15.5229 12.9495 13.4458C15.0264 11.3687 17.6665 9.94563 20.5433 9.35247Z" fill="#05E6BC"/>
<path d="M38.2239 21.04H40.2531C39.6356 17.629 37.9914 14.4879 35.5403 12.0367C33.0893 9.58543 29.9483 7.94099 26.5373 7.32324V9.35247C29.4142 9.94563 32.0542 11.3687 34.1312 13.4458C36.2081 15.5229 37.631 18.1631 38.2239 21.04Z" fill="#05E6BC"/>
<path d="M38.2239 27.0347C37.6309 29.9115 36.2081 32.5516 34.1311 34.6286C32.0542 36.7057 29.4142 38.1287 26.5373 38.7217V40.7514C29.9483 40.1337 33.0893 38.4892 35.5403 36.038C37.9914 33.5868 39.6356 30.4457 40.2531 27.0347H38.2239Z" fill="#05E6BC"/>
<path d="M8.85675 27.0347H6.82753C7.44504 30.4457 9.08926 33.5868 11.5403 36.038C13.9914 38.4892 17.1324 40.1337 20.5433 40.7514V38.7217C17.6665 38.1287 15.0265 36.7057 12.9495 34.6287C10.8726 32.5516 9.4497 29.9115 8.85675 27.0347Z" fill="#05E6BC"/>
<path d="M23.5403 11.0492C23.8053 11.0492 24.0594 10.9439 24.2467 10.7566C24.4341 10.5692 24.5393 10.3151 24.5393 10.0502V6.05418C24.5393 5.78923 24.4341 5.53513 24.2467 5.34778C24.0594 5.16043 23.8053 5.05518 23.5403 5.05518C23.2754 5.05518 23.0213 5.16043 22.8339 5.34778C22.6466 5.53513 22.5413 5.78923 22.5413 6.05418V10.0502C22.5413 10.3151 22.6466 10.5692 22.8339 10.7566C23.0213 10.9439 23.2754 11.0492 23.5403 11.0492Z" fill="#05E6BC"/>
<path d="M23.5403 36.0261C23.2754 36.0261 23.0213 36.1314 22.8339 36.3187C22.6466 36.5061 22.5413 36.7602 22.5413 37.0251V41.0216C22.5413 41.2866 22.6466 41.5407 22.8339 41.728C23.0213 41.9154 23.2754 42.0206 23.5403 42.0206C23.8053 42.0206 24.0594 41.9154 24.2467 41.728C24.4341 41.5407 24.5393 41.2866 24.5393 41.0216V37.0251C24.5393 36.7602 24.4341 36.5061 24.2467 36.3187C24.0594 36.1314 23.8053 36.0261 23.5403 36.0261Z" fill="#05E6BC"/>
<path d="M36.0278 24.0356C36.0278 24.3006 36.1331 24.5547 36.3204 24.742C36.5078 24.9294 36.7619 25.0346 37.0268 25.0346H41.0228C41.2878 25.0346 41.5419 24.9294 41.7292 24.742C41.9166 24.5547 42.0218 24.3006 42.0218 24.0356C42.0218 23.7707 41.9166 23.5166 41.7292 23.3292C41.5419 23.1419 41.2878 23.0366 41.0228 23.0366H37.0268C36.7619 23.0366 36.5078 23.1419 36.3204 23.3292C36.1331 23.5166 36.0278 23.7707 36.0278 24.0356Z" fill="#05E6BC"/>
<path d="M11.0528 24.0356C11.0528 23.7707 10.9476 23.5166 10.7602 23.3292C10.5729 23.1419 10.3188 23.0366 10.0538 23.0366H6.05781C5.79286 23.0366 5.53876 23.1419 5.35141 23.3292C5.16406 23.5166 5.05881 23.7707 5.05881 24.0356C5.05881 24.3006 5.16406 24.5547 5.35141 24.742C5.53876 24.9294 5.79286 25.0346 6.05781 25.0346H10.0538C10.3188 25.0346 10.5729 24.9294 10.7602 24.742C10.9476 24.5547 11.0528 24.3006 11.0528 24.0356Z" fill="#05E6BC"/>
<path d="M21.5429 20.0459C21.014 20.047 20.5066 20.2554 20.1297 20.6264C19.8397 20.9163 19.6459 21.2885 19.5747 21.6924C19.5035 22.0962 19.5583 22.5122 19.7317 22.8839L22.0628 27.8794C22.2391 28.2571 22.5291 28.5703 22.8923 28.775C23.2554 28.9797 23.6735 29.0657 24.0879 29.021C24.5024 28.9763 24.8924 28.803 25.2035 28.5255C25.5146 28.248 25.7311 27.8802 25.8227 27.4735L26.0442 26.4906L26.8935 26.3365C27.3108 26.2608 27.6932 26.0544 27.9853 25.747C28.2775 25.4396 28.4644 25.0473 28.5188 24.6267C28.5732 24.2061 28.4924 23.7791 28.2881 23.4075C28.0838 23.0359 27.7665 22.7389 27.3822 22.5595C26.8876 22.3288 22.196 20.042 21.5429 20.0459ZM24.3857 24.7599L23.8735 27.0345L21.5424 22.039L26.5374 24.3702L24.3857 24.7599Z" fill="#05E6BC"/>
</svg>
