<svg width="58" height="61" viewBox="0 0 58 61" fill="none" xmlns="http://www.w3.org/2000/svg">
<path d="M32.6942 4.36512C33.6854 6.08387 34.3641 10.3466 34.7206 15.9911H41.0536V9.99989C40.9169 9.93641 40.785 9.86317 40.6581 9.78016C40.4188 9.62879 40.1991 9.45301 40.0086 9.26258L39.9842 9.23817C39.6473 8.90125 39.3788 8.49598 39.1932 8.04676C39.0077 7.60242 38.9051 7.11414 38.9051 6.60145C38.9051 6.09364 39.0077 5.61024 39.1932 5.16102C39.3836 4.69715 39.6669 4.28211 40.0086 3.93543C40.3553 3.58875 40.7704 3.31043 41.2342 3.12C41.6786 2.93446 42.1669 2.83192 42.6747 2.83192C43.1825 2.83192 43.6659 2.93446 44.1151 3.12C44.579 3.31043 44.994 3.59364 45.3407 3.93543C45.6874 4.28211 45.9657 4.69715 46.1561 5.15614L46.1659 5.18543C46.3417 5.62489 46.4393 6.1034 46.4393 6.59657C46.4393 7.10438 46.3368 7.58778 46.1512 8.037C45.9608 8.50086 45.6776 8.9159 45.3358 9.26258L45.3065 9.29188C45.1356 9.45789 44.9452 9.61414 44.745 9.74598C44.6376 9.81922 44.5253 9.8827 44.4081 9.94618V17.6806C44.4081 18.1444 44.2176 18.5643 43.9149 18.8671C43.6122 19.1698 43.1922 19.3602 42.7284 19.3602H34.8866C34.9452 20.9667 34.9842 22.6561 34.9989 24.3993H49.8622C49.9256 24.2724 49.994 24.1503 50.0672 24.0331L50.0868 24.0087C50.2284 23.789 50.3944 23.5888 50.5702 23.413C50.9169 23.0663 51.3319 22.788 51.7958 22.5975L51.8251 22.5878C52.2645 22.412 52.743 22.3095 53.2362 22.3095C53.744 22.3095 54.2274 22.412 54.6766 22.5975C55.1405 22.788 55.5555 23.0712 55.9022 23.413C56.2489 23.7597 56.5272 24.1747 56.7176 24.6386C56.9032 25.0878 57.0057 25.5712 57.0057 26.079C57.0057 26.5868 56.9032 27.0702 56.7176 27.5194C56.5272 27.9833 56.244 28.3983 55.9022 28.745C55.5555 29.0917 55.1405 29.37 54.6766 29.5604L54.6473 29.5702C54.2079 29.746 53.7294 29.8436 53.2362 29.8436C52.7284 29.8436 52.2401 29.7411 51.7958 29.5556C51.3368 29.3651 50.9217 29.0868 50.5702 28.7401C50.3846 28.5546 50.2186 28.3495 50.0721 28.12C49.994 28.0028 49.9256 27.8807 49.8622 27.7538H35.0038C34.9891 29.6581 34.9501 31.6063 34.8866 33.5888H53.0555C53.5194 33.5888 53.9393 33.7792 54.2421 34.0819C54.5448 34.3847 54.7352 34.8046 54.7352 35.2684V47.7343C54.8963 47.8026 55.0477 47.8807 55.1942 47.9686C55.4579 48.1249 55.6971 48.3153 55.912 48.5302C56.2587 48.8768 56.537 49.2919 56.7274 49.7557L56.7372 49.785C56.9129 50.2245 57.0155 50.703 57.0155 51.1962C57.0155 51.704 56.913 52.1874 56.7274 52.6366C56.537 53.1005 56.2538 53.5155 55.912 53.8622C55.5653 54.2089 55.1503 54.4872 54.6864 54.6776C54.2421 54.8632 53.7538 54.9657 53.246 54.9657C52.7381 54.9657 52.2547 54.8632 51.8055 54.6776C51.3417 54.4872 50.9266 54.204 50.5799 53.8622C50.2333 53.5155 49.9549 53.1005 49.7645 52.6366C49.579 52.1923 49.4764 51.704 49.4764 51.1962C49.4764 50.6884 49.579 50.2001 49.7645 49.7557C49.9549 49.2919 50.2381 48.8768 50.5799 48.5302C50.7362 48.3739 50.912 48.2274 51.0975 48.0956C51.1854 48.0321 51.2782 47.9735 51.3758 47.9198V36.953H34.7547C34.6815 38.535 34.5936 40.122 34.4862 41.704H39.8768C40.3407 41.704 40.7606 41.8944 41.0633 42.1972C41.3661 42.4999 41.5565 42.9198 41.5565 43.3837V50.0536C41.6786 50.1171 41.7909 50.1854 41.9081 50.2587C42.1327 50.4052 42.3329 50.5712 42.5135 50.7518L42.5428 50.7811C42.8749 51.1229 43.1483 51.5282 43.3338 51.9774C43.5194 52.4218 43.6219 52.91 43.6219 53.4179C43.6219 53.9257 43.5194 54.414 43.3338 54.8583L43.3192 54.8876C43.1288 55.3417 42.8504 55.747 42.5135 56.0839L42.4891 56.1083C42.1473 56.4452 41.742 56.7186 41.2977 56.9042C40.8534 57.0897 40.3602 57.1923 39.8524 57.1923C39.3446 57.1923 38.8612 57.0897 38.412 56.9042C37.9481 56.7138 37.5331 56.4306 37.1864 56.0888L37.1571 56.0595C36.8251 55.7177 36.5516 55.3124 36.3661 54.8632C36.1805 54.414 36.078 53.9306 36.078 53.4227C36.078 52.9149 36.1805 52.4315 36.3661 51.9823C36.5565 51.5184 36.8348 51.1034 37.1815 50.7567C37.3719 50.5663 37.5868 50.3954 37.8114 50.2489C37.9335 50.1708 38.0604 50.0975 38.1922 50.0341V45.0682H34.2372C34.1835 45.7372 34.1249 46.4061 34.0663 47.0702C33.9881 47.9296 33.7391 49.5165 33.9003 50.3026C34.3299 52.3876 32.4501 58.6766 26.9227 59.8339C24.1981 60.4003 21.3807 59.5653 19.2567 57.9052C17.5575 56.5819 16.2831 54.7216 15.8241 52.6171C14.9354 52.5829 14.0321 52.4022 13.1532 52.1093C11.2098 51.455 9.3397 50.1806 7.87974 48.4911C6.41001 46.7968 5.34556 44.6679 5.00864 42.2997C4.83775 41.0643 4.86216 39.7753 5.1356 38.4472C4.18345 37.5829 3.36314 36.6112 2.71372 35.5516C1.58091 33.7401 0.960793 31.6991 0.985207 29.5995C1.00962 27.4852 1.68345 25.3417 3.14341 23.3495C3.99302 22.1923 5.11118 21.0888 6.5272 20.078C6.51255 19.6923 6.51255 19.3065 6.52232 18.9257C6.63462 15.8397 7.77232 13.1249 9.43247 11.0985C11.1512 8.99891 13.451 7.62684 15.8143 7.28993H15.8241C15.9071 6.94325 16.0047 6.60145 16.1317 6.26942C16.8934 4.20399 18.4608 2.44618 20.3797 1.32801C22.3133 0.204964 24.6327 -0.293083 26.8934 0.175667C29.0663 0.634651 31.1366 1.93348 32.6942 4.36512ZM16.0096 48.452C16.8104 45.9325 18.9247 43.4179 22.9139 41.3817C23.91 40.8788 25.121 41.2694 25.6336 42.2606C26.1366 43.2567 25.746 44.4677 24.7547 44.9804C21.0585 46.87 19.6669 49.038 19.6669 50.9276C19.6669 52.4022 20.5067 53.7792 21.7274 54.7362C22.9676 55.6981 24.5692 56.2011 26.0829 55.8886C27.9676 55.4979 29.784 53.7548 30.7264 49.9559V10.0145C29.784 6.245 27.9676 4.5116 26.0878 4.12098C24.8475 3.86219 23.5292 4.15516 22.4061 4.81434C21.2684 5.47352 20.3553 6.48914 19.9208 7.66102C19.3446 9.22352 19.6864 11.1425 21.6395 12.9491C22.4501 13.7059 22.5038 14.9706 21.7469 15.7811C20.9901 16.5917 19.7254 16.6454 18.9149 15.8886C17.3963 14.4823 16.4588 12.9882 15.9901 11.4989C14.7938 11.787 13.6122 12.578 12.6551 13.7401C11.537 15.1024 10.7704 16.9481 10.6922 19.0673C10.6727 19.6288 10.702 20.2245 10.785 20.8349H10.7801C10.8876 21.6259 10.536 22.4462 9.81333 22.8905C8.34849 23.7889 7.26939 24.7802 6.51255 25.8104C5.59458 27.0604 5.17466 28.3739 5.16001 29.6386C5.14536 30.9227 5.54087 32.202 6.24888 33.3495C6.84947 34.3212 7.66978 35.2099 8.67075 35.952C9.42271 36.4696 9.77427 37.4364 9.46665 38.3397C9.07115 39.5116 8.98326 40.6493 9.13462 41.7089C9.34947 43.2323 10.0575 44.6239 11.0243 45.7421C11.996 46.8651 13.2264 47.705 14.4862 48.1347C14.994 48.33 15.5067 48.4276 16.0096 48.452ZM16.4686 20.078C17.2596 19.3016 18.5292 19.3114 19.3104 20.1024C20.0868 20.8934 20.077 22.163 19.286 22.9442C17.5624 24.6434 16.6639 26.8309 16.5663 29.0673C16.4735 31.372 17.2206 33.745 18.7928 35.6932C19.4911 36.5575 19.3495 37.8222 18.4852 38.5204C17.621 39.2186 16.3563 39.077 15.6581 38.2128C13.4559 35.4833 12.411 32.163 12.5428 28.9061C12.6844 25.6737 13.9833 22.5194 16.4686 20.078Z" fill="#F68C85"/>
</svg>
