<svg width="24" height="40" viewBox="0 0 24 40" fill="none" xmlns="http://www.w3.org/2000/svg">
<path d="M4.25 0C3.12283 0 2.04183 0.447767 1.2448 1.2448C0.447766 2.04183 0 3.12283 0 4.25V35.75C0 36.8772 0.447766 37.9582 1.2448 38.7552C2.04183 39.5522 3.12283 40 4.25 40H19.75C20.8772 40 21.9582 39.5522 22.7552 38.7552C23.5522 37.9582 24 36.8772 24 35.75V4.25C24 3.12283 23.5522 2.04183 22.7552 1.2448C21.9582 0.447767 20.8772 0 19.75 0H4.25ZM2.5 4.25C2.5 3.284 3.284 2.5 4.25 2.5H19.75C20.717 2.5 21.5 3.284 21.5 4.25V35.75C21.5 36.2141 21.3156 36.6592 20.9874 36.9874C20.6593 37.3156 20.2141 37.5 19.75 37.5H4.25C3.78587 37.5 3.34075 37.3156 3.01256 36.9874C2.68437 36.6592 2.5 36.2141 2.5 35.75V4.25ZM9.25 31.5C8.91848 31.5 8.60054 31.6317 8.36612 31.8661C8.13169 32.1005 8 32.4185 8 32.75C8 33.0815 8.13169 33.3995 8.36612 33.6339C8.60054 33.8683 8.91848 34 9.25 34H14.75C15.0815 34 15.3995 33.8683 15.6339 33.6339C15.8683 33.3995 16 33.0815 16 32.75C16 32.4185 15.8683 32.1005 15.6339 31.8661C15.3995 31.6317 15.0815 31.5 14.75 31.5H9.25Z" fill="#D69D00"/>
</svg>
