<svg width="32" height="41" viewBox="0 0 32 41" fill="none" xmlns="http://www.w3.org/2000/svg">
<path fill-rule="evenodd" clip-rule="evenodd" d="M16.494 37.938C18.7942 35.8508 20.9231 33.5821 22.86 31.154C26.94 26.028 29.422 20.974 29.59 16.48C29.6565 14.6536 29.3542 12.8325 28.7011 11.1256C28.048 9.41861 27.0576 7.86079 25.789 6.54518C24.5204 5.22956 22.9996 4.18313 21.3176 3.4684C19.6355 2.75368 17.8266 2.38531 15.999 2.38531C14.1714 2.38531 12.3625 2.75368 10.6804 3.4684C8.99837 4.18313 7.47761 5.22956 6.20901 6.54518C4.94041 7.86079 3.94999 9.41861 3.29692 11.1256C2.64385 12.8325 2.34152 14.6536 2.408 16.48C2.578 20.974 5.062 26.028 9.14 31.154C11.0769 33.5821 13.2058 35.8508 15.506 37.938C15.7273 38.138 15.892 38.2833 16 38.374L16.494 37.938ZM14.524 40.268C14.524 40.268 0 28.036 0 16C0 11.7565 1.68571 7.68687 4.68629 4.68629C7.68687 1.68571 11.7565 0 16 0C20.2435 0 24.3131 1.68571 27.3137 4.68629C30.3143 7.68687 32 11.7565 32 16C32 28.036 17.476 40.268 17.476 40.268C16.668 41.012 15.338 41.004 14.524 40.268ZM16 21.6C17.4852 21.6 18.9096 21.01 19.9598 19.9598C21.01 18.9096 21.6 17.4852 21.6 16C21.6 14.5148 21.01 13.0904 19.9598 12.0402C18.9096 10.99 17.4852 10.4 16 10.4C14.5148 10.4 13.0904 10.99 12.0402 12.0402C10.99 13.0904 10.4 14.5148 10.4 16C10.4 17.4852 10.99 18.9096 12.0402 19.9598C13.0904 21.01 14.5148 21.6 16 21.6ZM16 24C13.8783 24 11.8434 23.1571 10.3431 21.6569C8.84285 20.1566 8 18.1217 8 16C8 13.8783 8.84285 11.8434 10.3431 10.3431C11.8434 8.84285 13.8783 8 16 8C18.1217 8 20.1566 8.84285 21.6569 10.3431C23.1571 11.8434 24 13.8783 24 16C24 18.1217 23.1571 20.1566 21.6569 21.6569C20.1566 23.1571 18.1217 24 16 24Z" fill="#D69D00"/>
</svg>
