<svg width="64" height="64" viewBox="0 0 64 64" fill="none" xmlns="http://www.w3.org/2000/svg">
<g clip-path="url(#clip0_984_40)">
<path d="M31.1923 7.46761C30.5616 6.20818 29.2723 5.33325 27.7707 5.33325H14.7377C14.5072 5.33325 14.3203 5.51998 14.3203 5.75074V9.2961H13.7894C12.0675 9.2961 10.6667 10.697 10.6667 12.4191V34.3538C10.6667 36.0755 12.0675 37.4764 13.7894 37.4764H27.7752C28.0855 38.7444 29.0896 39.7335 30.3572 40.0445V53.2283L28.5857 52.0196C29.109 48.2617 28.3423 44.9557 26.4008 42.6945C24.6394 40.643 22.079 39.5585 18.9968 39.5585C17.7113 39.5585 16.351 39.7521 14.9536 40.1346L14.8283 40.1753L14.6627 40.3588L14.644 40.4823C13.9715 44.8765 15.0244 48.563 17.609 50.862C19.3103 52.3758 21.5888 53.1761 24.1978 53.1761C25.4175 53.1761 26.7056 52.9949 28.0278 52.6497L30.3572 54.2389V58.6666H32.0271V54.2523L34.3655 52.6604C35.6722 52.9983 36.9458 53.1761 38.1518 53.1761C40.7609 53.1761 43.0393 52.3758 44.7406 50.862C47.325 48.563 48.3781 44.8769 47.7056 40.4823L47.6796 40.3506L47.514 40.1672L47.396 40.1346C45.9986 39.7521 44.6383 39.5585 43.3528 39.5585C40.2706 39.5585 37.7103 40.643 35.9486 42.6945C34.0006 44.9633 33.2341 48.2836 33.7682 52.0573L32.0271 53.2424V40.044C33.2969 39.7326 34.3027 38.7438 34.6133 37.4764H48.5995C50.3214 37.4764 51.7223 36.0755 51.7223 34.3538V12.4191C51.7223 10.697 50.3214 9.2961 48.5995 9.2961H48.0644V5.75074C48.0644 5.51998 47.8775 5.33325 47.6469 5.33325H34.614C33.1124 5.33325 31.8231 6.20818 31.1923 7.46761ZM24.1982 52.3411C21.7969 52.3411 19.7101 51.6138 18.1639 50.2382C15.8487 48.1785 14.8827 44.8598 15.431 40.8717C16.6658 40.5541 17.8642 40.3935 18.9968 40.3935C21.8281 40.3935 24.1693 41.3773 25.7675 43.2384C27.4796 45.2326 28.1882 48.1471 27.8088 51.4897L26.5782 50.65L26.1077 51.3398L27.0956 52.0138C26.0969 52.2273 25.1247 52.3411 24.1982 52.3411ZM36.5821 43.2384C38.1803 41.3772 40.5215 40.3935 43.3528 40.3935C44.4854 40.3935 45.6839 40.5541 46.9186 40.8717C47.4667 44.8602 46.5007 48.1789 44.1858 50.2382C42.0559 52.1337 38.8728 52.754 35.3148 52.0141L36.3053 51.3398L35.8356 50.65L34.5444 51.5288C34.1551 48.1697 34.8633 45.2405 36.5821 43.2384ZM15.1552 6.16822H27.7707C29.4272 6.16822 30.7749 7.51608 30.7749 9.17297V32.8702H15.1552V6.16822ZM48.0644 33.2876V10.966H48.5995C49.4007 10.966 50.0524 11.618 50.0524 12.4191V34.3538C50.0524 35.1549 49.4007 35.8064 48.5995 35.8064H33.0439V36.6414C33.0439 37.659 32.2124 38.4866 31.1903 38.4866C30.1729 38.4866 29.3451 37.659 29.3451 36.6414V35.8064H13.7894C12.9883 35.8064 12.3366 35.1549 12.3366 34.3538V12.4191C12.3366 11.618 12.9883 10.966 13.7894 10.966H14.3203V33.2876C14.3203 33.5184 14.5072 33.7051 14.7377 33.7051H31.1923H47.6469C47.8775 33.7051 48.0644 33.5184 48.0644 33.2876ZM47.2294 32.8702H31.6098V9.17297C31.6098 7.51607 32.9575 6.16822 34.614 6.16822H47.2295L47.2294 32.8702Z" fill="#00C0F1"/>
<path d="M27.8606 10.1033H18.0697C17.8391 10.1033 17.6522 10.29 17.6522 10.5208C17.6522 10.7515 17.8391 10.9382 18.0697 10.9382H27.8606C28.0912 10.9382 28.2781 10.7515 28.2781 10.5208C28.2781 10.29 28.0912 10.1033 27.8606 10.1033Z" fill="#00C0F1"/>
<path d="M27.8606 14.6023H18.0697C17.8391 14.6023 17.6522 14.789 17.6522 15.0198C17.6522 15.2505 17.8391 15.4373 18.0697 15.4373H27.8606C28.0912 15.4373 28.2781 15.2505 28.2781 15.0198C28.2781 14.789 28.0912 14.6023 27.8606 14.6023Z" fill="#00C0F1"/>
<path d="M27.8606 19.1018H18.0697C17.8391 19.1018 17.6522 19.2885 17.6522 19.5193C17.6522 19.7501 17.8391 19.9368 18.0697 19.9368H27.8606C28.0912 19.9368 28.2781 19.7501 28.2781 19.5193C28.2781 19.2885 28.0912 19.1018 27.8606 19.1018Z" fill="#00C0F1"/>
<path d="M27.8606 23.6011H18.0697C17.8391 23.6011 17.6522 23.7878 17.6522 24.0186C17.6522 24.2493 17.8391 24.436 18.0697 24.436H27.8606C28.0912 24.436 28.2781 24.2493 28.2781 24.0186C28.2781 23.7878 28.0912 23.6011 27.8606 23.6011Z" fill="#00C0F1"/>
<path d="M27.8606 28.1006H18.0697C17.8391 28.1006 17.6522 28.2873 17.6522 28.5181C17.6522 28.7488 17.8391 28.9356 18.0697 28.9356H27.8606C28.0912 28.9356 28.2781 28.7488 28.2781 28.5181C28.2781 28.2873 28.0912 28.1006 27.8606 28.1006Z" fill="#00C0F1"/>
<path d="M34.1066 10.5208C34.1066 10.7515 34.2935 10.9382 34.5241 10.9382H44.315C44.5456 10.9382 44.7325 10.7515 44.7325 10.5208C44.7325 10.29 44.5456 10.1033 44.315 10.1033H34.5241C34.2935 10.1033 34.1066 10.29 34.1066 10.5208Z" fill="#00C0F1"/>
<path d="M44.315 14.6023H34.5241C34.2935 14.6023 34.1066 14.789 34.1066 15.0198C34.1066 15.2505 34.2935 15.4373 34.5241 15.4373H44.315C44.5456 15.4373 44.7325 15.2505 44.7325 15.0198C44.7325 14.789 44.5456 14.6023 44.315 14.6023Z" fill="#00C0F1"/>
<path d="M44.315 19.1018H34.5241C34.2935 19.1018 34.1066 19.2885 34.1066 19.5193C34.1066 19.7501 34.2935 19.9368 34.5241 19.9368H44.315C44.5456 19.9368 44.7325 19.7501 44.7325 19.5193C44.7325 19.2885 44.5456 19.1018 44.315 19.1018Z" fill="#00C0F1"/>
<path d="M44.315 23.6011H34.5241C34.2935 23.6011 34.1066 23.7878 34.1066 24.0186C34.1066 24.2493 34.2935 24.436 34.5241 24.436H44.315C44.5456 24.436 44.7325 24.2493 44.7325 24.0186C44.7325 23.7878 44.5456 23.6011 44.315 23.6011Z" fill="#00C0F1"/>
<path d="M44.315 28.1006H34.5241C34.2935 28.1006 34.1066 28.2873 34.1066 28.5181C34.1066 28.7488 34.2935 28.9356 34.5241 28.9356H44.315C44.5456 28.9356 44.7325 28.7488 44.7325 28.5181C44.7325 28.2873 44.5456 28.1006 44.315 28.1006Z" fill="#00C0F1"/>
</g>
<defs>
<clipPath id="clip0_984_40">
<rect width="64" height="64" rx="4" fill="white"/>
</clipPath>
</defs>
</svg>
