<svg width="64" height="64" viewBox="0 0 64 64" fill="none" xmlns="http://www.w3.org/2000/svg">
<g clip-path="url(#clip0_984_605)">
<path fill-rule="evenodd" clip-rule="evenodd" d="M41.9498 32.521C41.425 32.364 41.4272 31.6351 41.9498 31.4759C47.0477 29.9373 44.9081 24.8013 39.8057 25.6154C39.1014 25.7276 38.9288 24.6577 39.6352 24.5433C40.2767 24.4402 40.88 24.4177 41.4407 24.4626C41.4609 24.3751 41.4788 24.2877 41.4923 24.198C42.0619 20.679 38.0406 19.3355 36.6612 21.1948C36.4818 21.4348 36.1431 21.4864 35.9031 21.3069C35.6632 21.1275 35.6116 20.7889 35.791 20.5489C36.0736 20.1698 36.4213 19.8783 36.8092 19.6697C36.244 17.2206 34.1134 17.2251 32.5434 18.6806V23.5924C32.983 23.5924 33.4786 23.4982 33.6065 24.032L34.0797 25.6715L35.0038 26.055L36.5424 25.2072C36.7599 25.0883 37.0223 25.1332 37.1883 25.2992L38.7044 26.8153C38.8883 26.9992 38.913 27.2796 38.7807 27.4926L37.9486 28.9998L38.3321 29.9239L40.0187 30.4106C40.2565 30.4801 40.4112 30.6954 40.4112 30.9309H40.4135V33.075C40.4135 33.3397 40.2251 33.5595 39.9739 33.6088L38.3343 34.0821L37.9508 35.0061L38.7986 36.5447C38.9175 36.7623 38.8726 37.0247 38.7067 37.1906L37.1905 38.7068C37.0066 38.8907 36.7263 38.9153 36.5154 38.783L35.0083 37.9509L34.0842 38.3345L33.5908 40.0121C33.5213 40.2498 33.306 40.4046 33.0705 40.4046V40.4068H32.5412V45.3186C34.1089 46.7742 36.2418 46.7765 36.807 44.3273C36.419 44.1187 36.0714 43.8271 35.7888 43.4481C35.6094 43.2081 35.6609 42.8672 35.9009 42.69C36.1409 42.5129 36.4818 42.5622 36.659 42.8022C38.0451 44.6682 42.0574 43.3091 41.49 39.799C41.4766 39.7093 41.4586 39.6219 41.4385 39.5344C40.8778 39.5792 40.2745 39.5568 39.633 39.4536C39.337 39.4065 39.1351 39.1284 39.1822 38.8324C39.2293 38.5364 39.5074 38.3345 39.8034 38.3816C41.7569 38.6956 43.2596 38.1461 44.1074 37.2512C44.7421 36.5828 45.0337 35.6834 44.7645 34.8043C44.4842 33.8847 43.5915 33.0189 41.9498 32.521ZM31.4559 18.6786C29.8881 17.223 27.7552 17.2185 27.19 19.6677C27.578 19.8763 27.9256 20.1678 28.2083 20.5468C28.3877 20.7868 28.3361 21.1277 28.0961 21.3049C27.8561 21.4821 27.5152 21.4327 27.338 21.1928C25.9049 19.2617 21.7288 20.7935 22.5586 24.4628C23.1193 24.4179 23.7226 24.4404 24.3641 24.5435C24.6601 24.5906 24.862 24.8687 24.8149 25.1648C24.7678 25.4608 24.4897 25.6627 24.1936 25.6156C22.2402 25.3016 20.7375 25.8511 19.8897 26.746C19.2549 27.4144 18.9634 28.3137 19.2325 29.1929C19.5174 30.1237 20.4033 30.9715 22.054 31.4761C22.5699 31.6353 22.5721 32.362 22.0495 32.519C16.9516 34.0598 19.0913 39.1936 24.1937 38.3795C24.8979 38.2673 25.0706 39.3372 24.3641 39.4515C23.7227 39.5547 23.1194 39.5771 22.5587 39.5323C22.5385 39.6197 22.5206 39.7094 22.5071 39.7969C21.9374 43.3159 25.9588 44.6594 27.3382 42.8001C27.5176 42.5601 27.8562 42.5085 28.0962 42.6879C28.3362 42.8674 28.3878 43.206 28.2084 43.446C27.9258 43.825 27.5781 44.1166 27.1901 44.3252C27.7553 46.7743 29.8882 46.7698 31.456 45.3143V40.4025C31.0164 40.4025 30.5207 40.4967 30.3929 39.9629L29.9196 38.3234L28.9956 37.9399L27.457 38.7877C27.2394 38.9065 26.977 38.8617 26.8111 38.6957L25.2949 37.1796C25.111 36.9957 25.0864 36.7153 25.2187 36.5045L26.0508 34.9973L25.6672 34.0732L23.9851 33.591C23.7474 33.5215 23.5926 33.3062 23.5949 33.0707H23.5926V30.9266C23.5926 30.6619 23.781 30.4421 24.0322 30.3928L25.6717 29.9195L26.0552 28.9955L25.2074 27.4569C25.0886 27.2393 25.1334 26.9769 25.2994 26.811L26.8155 25.2948C26.9994 25.1109 27.282 25.0863 27.4906 25.2208L28.9978 26.0529L29.9219 25.6694L30.4085 23.9828C30.4781 23.745 30.6934 23.5903 30.9289 23.5903V23.5881H31.4582L31.4559 18.6786ZM31.9986 27.8852C34.2706 27.8852 36.112 29.7266 36.112 31.9986C36.112 34.2706 34.2707 36.1119 31.9986 36.1119C29.7266 36.1119 27.8853 34.2706 27.8853 31.9986C27.8853 29.7266 29.7266 27.8852 31.9986 27.8852ZM34.1383 29.8589C35.3203 31.0409 35.3203 32.9562 34.1383 34.1382C32.2386 36.0379 28.9731 34.6855 28.9731 31.9985C28.9731 29.3116 32.2364 27.9593 34.1383 29.8589ZM34.1316 26.8468C34.3424 26.9343 34.5465 27.033 34.7394 27.1429C34.9098 27.2393 35.1095 27.2348 35.2687 27.1474L36.7063 26.3534L37.6438 27.2909L36.8499 28.7285C36.7512 28.908 36.7646 29.1188 36.8656 29.2803C37.0629 29.6122 37.2648 30.1281 37.3702 30.5026C37.424 30.6977 37.5788 30.839 37.7627 30.8839L39.3192 31.3347V32.6647L37.7447 33.12C37.5563 33.1738 37.4218 33.3218 37.3724 33.4968C37.2535 33.9229 37.0741 34.3558 36.8566 34.7415C36.7601 34.912 36.7646 35.1116 36.8521 35.2708L37.646 36.7085L36.7085 37.646L35.2709 36.852C35.0915 36.7533 34.8806 36.7668 34.7192 36.8677C34.3872 37.0651 33.8714 37.267 33.4968 37.3724C33.3017 37.4262 33.1604 37.5809 33.1156 37.7649L32.667 39.3214H31.337L30.8817 37.7469C30.8279 37.5585 30.6799 37.4239 30.5049 37.3746C30.0788 37.2557 29.6459 37.0763 29.2624 36.8587C29.0919 36.7623 28.8923 36.7668 28.7331 36.8542L27.2954 37.6482L26.3579 36.7107L27.1519 35.2731C27.2506 35.0936 27.2371 34.8828 27.1362 34.7213C26.9388 34.3894 26.737 33.8735 26.6316 33.499C26.5777 33.3039 26.423 33.1626 26.2391 33.1177L24.6826 32.6692V31.3392L26.257 30.8839C26.4432 30.83 26.58 30.682 26.6293 30.5071C26.7482 30.0809 26.9276 29.6481 27.1452 29.2645C27.2416 29.0941 27.2371 28.8945 27.1497 28.7352L26.3557 27.2976L27.2932 26.3601L28.7309 27.154C28.9103 27.2527 29.1211 27.2393 29.2826 27.1383C29.6145 26.941 30.1304 26.7391 30.5049 26.6337C30.7 26.5799 30.8414 26.4251 30.8862 26.2412L31.3348 24.6847H32.6648L33.12 26.2592C33.1739 26.4476 33.3219 26.5822 33.4968 26.6315C33.7077 26.6876 33.9207 26.7616 34.1316 26.8468ZM16.8281 13.2059H20.1183V5.86985C20.1183 5.15439 21.2061 5.15439 21.2061 5.86985V13.2059H27.6746V5.86985C27.6746 5.15439 28.7623 5.15439 28.7623 5.86985V13.2059H35.2308L35.2331 5.86985C35.2331 5.15439 36.3208 5.15439 36.3208 5.86985V13.2059H42.7893V5.86985C42.7893 5.15439 43.877 5.15439 43.877 5.86985V13.2059H47.1673C49.1612 13.2059 50.7894 14.8342 50.7894 16.8281V20.1183H58.1255C58.8432 20.1183 58.8432 21.206 58.1255 21.206L50.7917 21.2083V27.6768H58.1278C58.8455 27.6768 58.8455 28.7645 58.1278 28.7645H50.7917V35.233H58.1278C58.8455 35.233 58.8455 36.3208 58.1278 36.3208H50.7917V42.7893H58.1278C58.8455 42.7893 58.8455 43.877 58.1278 43.877L50.7917 43.8793V47.1695C50.7917 49.1634 49.1635 50.7916 47.1696 50.7916H43.8793V58.13C43.8793 58.8455 42.7916 58.8455 42.7916 58.13L42.7893 50.7916H36.3209V58.13C36.3209 58.8455 35.2331 58.8455 35.2331 58.13V50.7916H28.7646V58.13C28.7646 58.8455 27.6769 58.8455 27.6769 58.13V50.7916H21.2084V58.13C21.2084 58.8455 20.1206 58.8455 20.1206 58.13L20.1184 50.7916H16.8281C14.8343 50.7916 13.206 49.1634 13.206 47.1695V43.8793H5.86993C5.15447 43.8793 5.15447 42.7915 5.86993 42.7915H13.206V36.3207H5.86993C5.15447 36.3207 5.15447 35.233 5.86993 35.233H13.206V28.7645H5.86993C5.15447 28.7645 5.15447 27.6767 5.86993 27.6767H13.206V21.2082H5.86993C5.15447 21.2082 5.15447 20.1205 5.86993 20.1205H13.206V16.8302C13.206 14.8341 14.8342 13.2059 16.8281 13.2059ZM47.1668 14.2937C48.5596 14.2937 49.7012 15.4353 49.7012 16.8281V47.1667C49.7012 48.5595 48.5596 49.7011 47.1668 49.7011L16.8281 49.7034C15.4353 49.7034 14.2937 48.5618 14.2937 47.169V16.828C14.2937 15.4352 15.4353 14.2936 16.8281 14.2936L47.1668 14.2937ZM21.4845 39.3546C17.6404 38.361 16.64 33.9831 20.4461 31.9985C16.64 30.0114 17.6426 25.6333 21.4845 24.6423C21.0158 22.4242 21.9757 20.464 23.8844 19.6296C24.6088 19.3111 25.4072 19.199 26.1563 19.3223C26.9166 16.3035 29.7919 15.846 31.999 17.712C34.2059 15.8482 37.0812 16.3035 37.8416 19.3223C39.3196 19.0779 40.9075 19.7507 41.8182 20.9798C42.4529 21.8365 42.7893 22.9849 42.565 24.3732V24.3754C42.5493 24.4674 42.5336 24.5549 42.5157 24.6446C46.3599 25.6381 47.3602 30.0161 43.5541 32.0007C47.3602 33.9856 46.3576 38.3636 42.5157 39.3569C42.5336 39.4443 42.5516 39.534 42.565 39.626V39.6282C43.1235 42.8243 40.4321 45.1075 37.8416 44.6768C37.0813 47.6957 34.206 48.1532 31.999 46.2872C29.792 48.151 26.9167 47.6934 26.1563 44.6768C24.6761 44.9213 23.0904 44.2485 22.1798 43.0194C21.545 42.1627 21.2086 41.0143 21.4329 39.626V39.6238C21.4486 39.5318 21.4643 39.4421 21.4845 39.3546Z" fill="#00C0F1"/>
</g>
<defs>
<clipPath id="clip0_984_605">
<rect width="64" height="64" rx="4" fill="white"/>
</clipPath>
</defs>
</svg>
