<svg width="64" height="64" viewBox="0 0 64 64" fill="none" xmlns="http://www.w3.org/2000/svg">
<g clip-path="url(#clip0_984_348)">
<path d="M48.5 45.5833C48.1667 45.3333 47.75 45.4166 47.4167 45.6666L46.5833 46.4999L45.1667 45.0833C50.0833 39.4999 49.9167 30.9999 44.5833 25.7499C42.8333 23.9999 40.6667 22.7499 38.4167 22.1666V13.8333C38.4167 13.3333 38.0833 12.9999 37.5833 12.9999H31.6667V10.9166C31.6667 9.99992 30.9167 9.16659 29.9167 9.16659H26.5C26.1667 6.99992 24.25 5.33325 21.9167 5.33325C19.5833 5.33325 17.6667 6.99992 17.25 9.24992H13.8333C12.9167 9.24992 12.0833 9.99992 12.0833 10.9999V12.9999H6.16666C5.66666 12.9999 5.33333 13.3333 5.33333 13.8333V56.9999C5.33333 57.4999 5.66666 57.8333 6.16666 57.8333H37.6667C38.1667 57.8333 38.5 57.4999 38.5 56.9999V49.2499C40.5833 48.6666 42.4167 47.6666 44.0833 46.1666L45.5 47.5833L44.6667 48.4166C44.4167 48.6666 44.3333 49.1666 44.5833 49.4999C45.5833 51.0833 50.6667 58.6666 54 58.6666C55.5 58.6666 57.6667 56.4999 57.6667 54.9999C57.6667 51.6666 50.0833 46.5833 48.5 45.5833ZM43.5 44.4999C38.6667 49.3333 30.75 49.3333 25.8333 44.4999C25.75 44.4166 25.6667 44.3333 25.6667 44.2499L29.1667 42.7499C29.8333 43.5833 30.8333 44.1666 31.9167 44.1666C33.8333 44.1666 35.4167 42.5833 35.4167 40.6666C35.4167 39.7499 35.0833 38.9999 34.5 38.3332L37.3333 34.1666C37.75 34.3333 38.0833 34.4166 38.5833 34.4166C40.5 34.4166 42.0833 32.8333 42.0833 30.9166C42.0833 28.9999 40.5 27.4166 38.5833 27.4166C36.6667 27.4166 35.0833 28.9999 35.0833 30.9166C35.0833 31.8333 35.4167 32.5833 36 33.2499L33.1667 37.4166C32.75 37.2499 32.4167 37.1666 31.9167 37.1666C30 37.1666 28.4167 38.7499 28.4167 40.6666C28.4167 40.8333 28.4167 40.9999 28.5 41.2499L24.5833 42.9166C21.0833 38.0832 21.5 31.2499 25.9167 26.8333C30.75 21.9999 38.6667 21.9999 43.5833 26.8333C48.3333 31.7499 48.3333 39.5833 43.5 44.4999ZM30.0833 40.6666C30.0833 39.6666 30.9167 38.8333 31.9167 38.8333C32.9167 38.8333 33.75 39.6666 33.75 40.6666C33.75 41.6666 32.9167 42.4999 31.9167 42.4999C31.1667 42.4999 30.5 42.0833 30.25 41.4166C30.1667 41.1666 30.0833 40.9166 30.0833 40.6666ZM36.75 30.9166C36.75 29.9166 37.5833 29.0833 38.5833 29.0833C39.5833 29.0833 40.4167 29.9166 40.4167 30.9166C40.4167 31.9166 39.5833 32.7499 38.5833 32.7499C37.5833 32.7499 36.75 31.9166 36.75 30.9166ZM18 10.9166C18.5 10.9166 18.8333 10.5833 18.8333 10.0833C18.8333 8.41658 20.25 6.99992 21.9167 6.99992C23.5833 6.99992 25 8.41658 25 10.0833C25 10.5833 25.3333 10.9166 25.8333 10.9166L30.0833 10.9999V16.5833C30.0833 16.5833 30.0833 16.6666 30 16.6666L13.75 16.5833L13.8333 10.9166H18ZM36.8333 56.1666H6.99999V14.5833H12.0833V16.5833C12.0833 17.4999 12.8333 18.3333 13.8333 18.3333H30C30.9167 18.3333 31.75 17.5833 31.75 16.5833V14.5833H36.8333V21.6666C32.1667 20.9999 27.8333 22.4999 24.6667 25.6666C19.8333 30.4999 19.25 38.0833 22.9167 43.5833L20.0833 44.7499C19.5 43.9166 18.5 43.4166 17.4167 43.3332L14.3333 28.2499C15.5 27.6666 16.3333 26.4999 16.3333 25.0833C16.3333 23.1666 14.75 21.5833 12.8333 21.5833C10.9167 21.5833 9.33333 23.1666 9.33333 25.0833C9.33333 26.9166 10.8333 28.4999 12.6667 28.5833L15.9167 43.6666C14.75 44.2499 13.9167 45.4166 13.9167 46.8333C13.9167 48.7499 15.5 50.3333 17.4167 50.3333C19.3333 50.3333 20.9167 48.7499 20.9167 46.8333C20.9167 46.6666 20.9167 46.4999 20.8333 46.2499L24.0833 44.9166C24.3333 45.1666 24.5 45.4166 24.75 45.6666C27.8333 48.7499 32.25 50.3333 36.9167 49.6666V56.1666H36.8333ZM17.3333 44.9999C18.0833 44.9999 18.75 45.4166 19 46.0833C19.0833 46.3333 19.1667 46.4999 19.1667 46.7499C19.1667 47.7499 18.3333 48.5833 17.3333 48.5833C16.3333 48.5833 15.5 47.7499 15.5 46.7499C15.5 45.7499 16.3333 44.9999 17.3333 44.9999ZM13.3333 26.9166C13.1667 26.9166 13.0833 26.9166 13 26.9166C12 26.9166 11.1667 26.0833 11.1667 25.0833C11.1667 24.0833 12 23.2499 13 23.2499C14 23.2499 14.8333 24.0833 14.8333 25.0833C14.75 25.9999 14.1667 26.7499 13.3333 26.9166ZM54 56.9999C52.25 56.9999 48.5833 52.5832 46.3333 49.1666L48.1667 47.3333C51.5833 49.6666 56 53.3332 56 54.9999C56 55.5832 54.5833 56.9999 54 56.9999Z" fill="#00C0F1"/>
<path d="M18.3333 12.9165H16.5833V14.5832H18.3333V12.9165Z" fill="#00C0F1"/>
<path d="M22.75 12.9165H21V14.5832H22.75V12.9165Z" fill="#00C0F1"/>
<path d="M27.1666 12.9165H25.4166V14.5832H27.1666V12.9165Z" fill="#00C0F1"/>
</g>
<defs>
<clipPath id="clip0_984_348">
<rect width="64" height="64" rx="4" fill="white"/>
</clipPath>
</defs>
</svg>
