<svg width="64" height="64" viewBox="0 0 64 64" fill="none" xmlns="http://www.w3.org/2000/svg">
<g clip-path="url(#clip0_984_527)">
<path fill-rule="evenodd" clip-rule="evenodd" d="M57.5176 48.9125H15.605C15.1449 48.9125 14.7716 48.5393 14.7716 48.0792V6.16659C14.7716 5.70652 15.1449 5.33325 15.605 5.33325H57.5176C57.9777 5.33325 58.3509 5.70652 58.3509 6.16659V48.0792C58.3509 48.5393 57.9791 48.9125 57.5176 48.9125ZM16.4383 47.2459H56.6843V6.99992H16.4383V47.2459Z" fill="#00C0F1"/>
<path fill-rule="evenodd" clip-rule="evenodd" d="M29.5765 48.9124H15.6051C15.1451 48.9124 14.7718 48.5392 14.7718 48.0791V34.1077C14.7718 33.6477 15.1451 33.2744 15.6051 33.2744H29.5765C30.0365 33.2744 30.4098 33.6477 30.4098 34.1077V48.0791C30.4098 48.5392 30.0365 48.9124 29.5765 48.9124ZM16.4385 47.2458H28.7431V34.9411H16.4385V47.2458Z" fill="#00C0F1"/>
<path fill-rule="evenodd" clip-rule="evenodd" d="M43.5478 48.9126H15.6051C15.1451 48.9126 14.7718 48.5394 14.7718 48.0793V20.138C14.7718 19.678 15.1451 19.3047 15.6051 19.3047H43.5464C44.0065 19.3047 44.3797 19.678 44.3797 20.138V48.0793C44.3812 48.5394 44.0079 48.9126 43.5478 48.9126ZM16.4385 47.2459H42.7131V20.9714H16.4385V47.2459Z" fill="#00C0F1"/>
<path fill-rule="evenodd" clip-rule="evenodd" d="M9.17846 48.8431C8.7184 48.8431 8.34513 48.4698 8.34513 48.0097V20.2074C8.34513 19.7473 8.7184 19.374 9.17846 19.374C9.63853 19.374 10.0118 19.7473 10.0118 20.2074V48.0097C10.0118 48.4698 9.63853 48.8431 9.17846 48.8431Z" fill="#00C0F1"/>
<path fill-rule="evenodd" clip-rule="evenodd" d="M12.1921 24.0095C11.9794 24.0095 11.7653 23.9285 11.6032 23.765L9.17991 21.3417L6.75659 23.765C6.43106 24.0905 5.903 24.0905 5.57748 23.765C5.25196 23.4395 5.25196 22.9114 5.57748 22.5859L8.59108 19.5723C8.9166 19.2467 9.44466 19.2467 9.77019 19.5723L12.7838 22.5859C13.1093 22.9114 13.1093 23.4395 12.7838 23.765C12.6189 23.9285 12.4047 24.0095 12.1921 24.0095Z" fill="#00C0F1"/>
<path fill-rule="evenodd" clip-rule="evenodd" d="M43.4075 55.653H15.6051C15.1451 55.653 14.7718 55.2797 14.7718 54.8197C14.7718 54.3596 15.1451 53.9863 15.6051 53.9863H43.4075C43.8676 53.9863 44.2408 54.3596 44.2408 54.8197C44.2408 55.2797 43.8676 55.653 43.4075 55.653Z" fill="#00C0F1"/>
<path fill-rule="evenodd" clip-rule="evenodd" d="M40.4387 58.6664C40.2261 58.6664 40.012 58.5854 39.8499 58.4219C39.5244 58.0964 39.5244 57.5683 39.8499 57.2428L42.2732 54.8195L39.8499 52.3961C39.5244 52.0706 39.5244 51.5426 39.8499 51.217C40.1754 50.8915 40.7035 50.8915 41.029 51.217L44.0426 54.2292C44.3681 54.5547 44.3681 55.0828 44.0426 55.4083L41.029 58.4219C40.8655 58.5854 40.6514 58.6664 40.4387 58.6664Z" fill="#00C0F1"/>
</g>
<defs>
<clipPath id="clip0_984_527">
<rect width="64" height="64" rx="4" fill="white"/>
</clipPath>
</defs>
</svg>
