<svg width="64" height="64" viewBox="0 0 64 64" fill="none" xmlns="http://www.w3.org/2000/svg">
<g clip-path="url(#clip0_984_111)">
<path fill-rule="evenodd" clip-rule="evenodd" d="M41.1372 22.8627C38.7993 20.5248 35.5703 19.0781 32.001 19.0781C28.4341 19.0781 25.2025 20.5248 22.8649 22.8627C20.527 25.2005 19.0803 28.4295 19.0803 31.9988C19.0803 35.5658 20.527 38.7973 22.8649 41.135C25.2027 43.4728 28.4317 44.9195 32.001 44.9195C35.568 44.9195 38.7995 43.4728 41.1372 41.135C43.475 38.7971 44.9217 35.5681 44.9217 31.9988C44.9217 28.4319 43.475 25.2003 41.1372 22.8627ZM32.001 17.8583C35.9059 17.8583 39.4407 19.4415 42.0005 21.9993C44.5606 24.5594 46.1416 28.0938 46.1416 31.9988C46.1416 35.9038 44.5583 39.4385 42.0005 41.9983C39.4405 44.5584 35.906 46.1394 32.001 46.1394C28.096 46.1394 24.5614 44.5561 22.0015 41.9983C19.4414 39.4383 17.8605 35.9038 17.8605 31.9988C17.8605 28.0938 19.4437 24.5592 22.0015 21.9993C24.5616 19.4392 28.096 17.8583 32.001 17.8583ZM26.8392 10.5691L28.3669 5.80545C28.4294 5.53463 28.6725 5.33325 28.9618 5.33325H35.0427V5.33557C35.2996 5.33557 35.5404 5.49991 35.6214 5.75916L37.163 10.5691L37.8135 10.7474C38.7069 10.9904 39.5819 11.289 40.4314 11.6431C41.2925 11.9996 42.1235 12.407 42.9174 12.8607L43.503 13.1963L47.9565 10.9047C48.1903 10.7612 48.5028 10.7913 48.7041 10.995L53.0048 15.2957L53.0025 15.298C53.1854 15.4809 53.2386 15.7656 53.1136 16.0086L50.8036 20.4992L51.1392 21.0848C51.5929 21.8811 52.0003 22.7097 52.3568 23.5708C52.7086 24.4203 53.0072 25.2952 53.2525 26.1887L53.4308 26.8392L58.1945 28.3669C58.4653 28.4294 58.6667 28.6724 58.6667 28.9617V35.0426H58.6643C58.6643 35.2996 58.5 35.5403 58.2408 35.6213L53.4308 37.1629L53.2526 37.8134C53.0095 38.7069 52.7109 39.5818 52.3568 40.4313C52.0003 41.2924 51.5929 42.1234 51.1392 42.9173L50.8036 43.5029L53.0952 47.9564C53.2387 48.1902 53.2086 48.5027 53.0049 48.7041L48.7042 53.0048L48.7019 53.0025C48.519 53.1853 48.2343 53.2386 47.9913 53.1136L43.5008 50.8035L42.9151 51.1391C42.1188 51.5951 41.2879 52.0002 40.4291 52.3567C39.5797 52.7085 38.7047 53.0071 37.8112 53.2525L37.1607 53.4307L35.633 58.1944C35.5706 58.4652 35.3275 58.6666 35.0382 58.6666H28.9573V58.6643C28.7003 58.6643 28.4596 58.4999 28.3786 58.2407L26.837 53.4307L26.1865 53.2525C25.2931 53.0094 24.4181 52.7108 23.5686 52.3567C22.7075 52.0002 21.8765 51.5928 21.0826 51.1392L20.497 50.8035L16.0435 53.0951C15.8097 53.2386 15.4972 53.2085 15.2959 53.0048L10.9951 48.7041L10.9975 48.7018C10.8146 48.5189 10.7614 48.2342 10.8864 47.9912L13.1964 43.5007L12.8608 42.9151C12.4071 42.1188 11.9997 41.2901 11.6432 40.4291C11.2914 39.5796 10.9928 38.7046 10.7474 37.8111L10.5692 37.1607L5.80553 35.633C5.53471 35.5705 5.33333 35.3274 5.33333 35.0381V28.9572H5.33564C5.33564 28.7003 5.49998 28.4595 5.75923 28.3785L10.5692 26.8369L10.7474 26.1865C10.9905 25.293 11.2891 24.418 11.6432 23.5685C11.9997 22.7074 12.4071 21.8764 12.8607 21.0802L13.1964 20.4946L10.9048 16.0411C10.7613 15.8073 10.7914 15.4948 10.9951 15.2935L15.2958 10.9928L15.2981 10.9951C15.481 10.8122 15.7657 10.759 16.0087 10.884L20.4992 13.194L21.0849 12.8584C21.8811 12.4024 22.7098 11.9973 23.5708 11.6408C24.4203 11.289 25.2953 10.9904 26.1888 10.7451L26.8392 10.5668V10.5691ZM29.4039 6.55546H34.5981L36.105 11.2543C36.1652 11.4441 36.318 11.5992 36.524 11.6548L37.4938 11.9186C38.3341 12.1478 39.1604 12.4302 39.9682 12.7658C40.7645 13.0968 41.5492 13.4811 42.313 13.9162L43.1857 14.4162C43.3593 14.5134 43.5769 14.5273 43.7667 14.4278L48.1553 12.1709L51.8265 15.8421L49.5835 20.2007C49.477 20.3835 49.4677 20.615 49.5788 20.8141L50.0788 21.6868C50.5163 22.4506 50.9005 23.233 51.2292 24.0292C51.5649 24.8371 51.8473 25.6657 52.0764 26.506L52.3333 27.4504C52.3796 27.6541 52.5278 27.8277 52.7407 27.8971L57.4396 29.404V34.5982L52.7407 36.1051C52.5509 36.1676 52.3958 36.3181 52.3403 36.5241L52.0764 37.4939C51.8473 38.3342 51.5649 39.1605 51.2292 39.9683C50.8982 40.7646 50.514 41.5493 50.0788 42.3131L49.5788 43.1858C49.4793 43.3594 49.4677 43.577 49.5673 43.7668L51.8241 48.1554L48.153 51.8266L43.7944 49.5836C43.6115 49.4771 43.3801 49.4678 43.181 49.5789L42.3083 50.0789C41.5444 50.5164 40.7621 50.9006 39.9658 51.2293C39.158 51.565 38.3293 51.8474 37.4914 52.0765L36.5493 52.3335C36.3456 52.3797 36.172 52.5279 36.1026 52.7408L34.5957 57.4397H29.4015L27.8946 52.7408C27.8345 52.551 27.6817 52.3959 27.4757 52.3404L26.5058 52.0765C25.6656 51.8474 24.8392 51.565 24.0314 51.2293C23.2351 50.8983 22.4504 50.5141 21.6866 50.0789L20.8139 49.5789C20.6403 49.4817 20.4228 49.4678 20.233 49.5674L15.8443 51.8242L12.1732 48.1531L14.4162 43.7945C14.5226 43.6116 14.5319 43.3802 14.4208 43.1811L13.9208 42.3084C13.4833 41.5445 13.0991 40.7622 12.7704 39.9659C12.4348 39.1581 12.1524 38.3294 11.9232 37.4892L11.6663 36.5471C11.62 36.3434 11.4719 36.1698 11.2589 36.1004L6.56004 34.5935V29.3993L11.2589 27.8924C11.4487 27.8299 11.6038 27.6795 11.6593 27.4735L11.9232 26.5036C12.1524 25.6634 12.4348 24.837 12.7704 24.0292C13.1014 23.2329 13.4856 22.4482 13.9208 21.6844L14.4208 20.8117C14.5203 20.6381 14.5319 20.4205 14.4324 20.2307L12.1755 15.8421L15.8466 12.171L20.2052 14.414C20.3881 14.5204 20.6196 14.5297 20.8187 14.4186L21.6913 13.9186C22.4552 13.4811 23.2376 13.0969 24.0338 12.7682C24.8416 12.4326 25.6703 12.1502 26.5105 11.921L27.4526 11.6641C27.6563 11.6178 27.8299 11.4696 27.8993 11.2567L29.4062 6.55783L29.4039 6.55546ZM27.7582 25.9252C27.9272 26.0942 28.0336 26.3303 28.0336 26.5872C28.0336 26.8465 27.9295 27.0803 27.7582 27.2492C27.5892 27.4182 27.3531 27.5247 27.0962 27.5247C26.8369 27.5247 26.6032 27.4205 26.4342 27.2492C26.2652 27.0803 26.1587 26.8442 26.1587 26.5872C26.1587 26.328 26.2629 26.0942 26.4342 25.9252C26.6031 25.7562 26.8392 25.6498 27.0962 25.6498C27.3554 25.6498 27.5892 25.7539 27.7582 25.9252ZM27.0962 24.4299C27.6934 24.4299 28.2327 24.6707 28.6216 25.0618C28.8739 25.3141 29.0637 25.6266 29.1655 25.9785H41.1282C41.4662 25.9785 41.7393 26.2516 41.7393 26.5895C41.7393 26.9275 41.4661 27.2006 41.1282 27.2006H29.1655C29.0614 27.5524 28.8716 27.8649 28.6216 28.1172C28.2304 28.5084 27.6911 28.7491 27.0962 28.7491C26.499 28.7491 25.9596 28.5084 25.5708 28.1172C25.3185 27.8649 25.1287 27.5524 25.0268 27.2006H22.8765C22.5385 27.2006 22.2654 26.9275 22.2654 26.5895C22.2654 26.2516 22.5386 25.9785 22.8765 25.9785H25.0268C25.131 25.6266 25.3208 25.3142 25.5708 25.0618C25.962 24.6707 26.5013 24.4299 27.0962 24.4299ZM31.633 36.7464C31.802 36.9154 31.9084 37.1515 31.9084 37.4084C31.9084 37.6676 31.8043 37.9014 31.633 38.0704C31.464 38.2394 31.2279 38.3459 30.971 38.3459C30.7117 38.3459 30.4779 38.2417 30.309 38.0704C30.14 37.9014 30.0335 37.6653 30.0335 37.4084C30.0335 37.1492 30.1377 36.9154 30.309 36.7464C30.4779 36.5774 30.714 36.4709 30.971 36.4709C31.2302 36.4709 31.464 36.5751 31.633 36.7464ZM30.971 35.2511C31.5682 35.2511 32.1075 35.4918 32.4963 35.883C32.7486 36.1353 32.9384 36.4478 33.0403 36.7997H41.1276C41.4656 36.7997 41.7387 37.0728 41.7387 37.4107C41.7387 37.7487 41.4655 38.0218 41.1276 38.0218H33.0403C32.9361 38.3736 32.7463 38.6861 32.4963 38.9384C32.1052 39.3296 31.5658 39.5703 30.971 39.5703C30.3738 39.5703 29.8344 39.3296 29.4456 38.9384C29.1933 38.6861 29.0035 38.3736 28.9016 38.0218H22.8788C22.5409 38.0218 22.2677 37.7486 22.2677 37.4107C22.2677 37.0728 22.5409 36.7997 22.8788 36.7997H28.9016C29.0058 36.4478 29.1956 36.1353 29.4456 35.883C29.8368 35.4918 30.3761 35.2511 30.971 35.2511ZM37.3873 31.3369C37.5562 31.5059 37.6627 31.742 37.6627 31.9989C37.6627 32.2582 37.5585 32.492 37.3873 32.661C37.2183 32.8299 36.9822 32.9364 36.7252 32.9364C36.466 32.9364 36.2322 32.8322 36.0632 32.661C35.8943 32.492 35.7878 32.2559 35.7878 31.9989C35.7878 31.7397 35.8919 31.5059 36.0632 31.3369C36.2322 31.1679 36.4683 31.0615 36.7252 31.0615C36.9845 31.0615 37.2183 31.1656 37.3873 31.3369ZM36.7252 29.8416C37.3224 29.8416 37.8618 30.0824 38.2506 30.4736C38.5029 30.7259 38.6927 31.0383 38.7946 31.3902H41.1278C41.4657 31.3902 41.7389 31.6633 41.7389 32.0013C41.7389 32.3392 41.4657 32.6123 41.1278 32.6123H38.7946C38.6904 32.9641 38.5006 33.2766 38.2506 33.5289C37.8594 33.9201 37.3201 34.1609 36.7252 34.1609C36.1281 34.1609 35.5887 33.9201 35.1999 33.5289C34.9476 33.2766 34.7578 32.9642 34.6559 32.6123H22.8763C22.5384 32.6123 22.2653 32.3392 22.2653 32.0013C22.2653 31.6633 22.5384 31.3902 22.8763 31.3902H34.6559C34.7601 31.0384 34.9499 30.7259 35.1999 30.4736C35.591 30.0824 36.1304 29.8416 36.7252 29.8416Z" fill="#00C0F1"/>
</g>
<defs>
<clipPath id="clip0_984_111">
<rect width="64" height="64" rx="4" fill="white"/>
</clipPath>
</defs>
</svg>
