<svg width="64" height="64" viewBox="0 0 64 64" fill="none" xmlns="http://www.w3.org/2000/svg">
<g clip-path="url(#clip0_984_87)">
<path fill-rule="evenodd" clip-rule="evenodd" d="M11.7864 5.33328C8.22763 5.33328 5.33334 8.24256 5.33334 11.8089V43.1505C5.33334 46.2025 7.12026 48.9841 9.89442 50.238L25.9424 57.4982C29.3885 59.0561 33.3377 59.0561 36.7836 57.4982L48.928 52.0061C49.3634 51.8072 49.5549 51.2779 49.3597 50.8425C49.157 50.407 48.6352 50.1968 48.1997 50.3957L36.0592 55.8953C33.0748 57.2467 29.6549 57.2467 26.6706 55.8953L10.6188 48.6314C8.47521 47.6629 7.10125 45.5193 7.10125 43.1544V11.8128C7.10125 9.19624 9.19223 7.10536 11.7899 7.10536H19.9323V7.1016H19.9398C20.4204 7.1016 20.8183 6.69617 20.8183 6.21191C20.8183 5.73141 20.4204 5.33349 19.9398 5.33349H19.9323L11.7864 5.33328ZM23.9644 5.33328C23.4838 5.33328 23.0859 5.7312 23.0859 6.21171C23.0859 6.69597 23.4801 7.1014 23.9644 7.1014H50.9362C53.5339 7.1014 55.6249 9.19237 55.6249 11.8088V43.1504C55.6249 45.5154 54.2435 47.6589 52.0999 48.6274C51.6607 48.8264 51.4617 49.3595 51.6607 49.7987C51.8597 50.2379 52.3927 50.4369 52.8281 50.2379C55.6023 48.9841 57.3892 46.2024 57.3892 43.1505V11.8089C57.3892 8.24263 54.4912 5.33325 50.9323 5.33325L23.9644 5.33328ZM31.3634 17.0308C23.4689 17.0308 17.0491 23.4538 17.0491 31.3557C17.0491 39.254 23.4684 45.6806 31.3634 45.6806C39.2584 45.6806 45.6806 39.2575 45.6806 31.3557C45.6806 30.1769 45.5342 29.0319 45.2677 27.9358H45.2714C45.2151 27.7105 45.0725 27.5191 44.8773 27.4027C44.6783 27.2826 44.4456 27.2488 44.2203 27.3051C43.7623 27.4177 43.4808 27.8832 43.5897 28.3449C43.8262 29.3097 43.95 30.3158 43.95 31.3556C43.95 38.3192 38.3266 43.9468 31.3665 43.9468C24.4066 43.9468 18.7791 38.3196 18.7791 31.3556C18.7791 24.3916 24.4026 18.7644 31.3665 18.7644C34.3959 18.7644 37.1626 19.8305 39.3325 21.6099V21.6061C39.7003 21.9064 40.2447 21.8539 40.545 21.486C40.6914 21.3095 40.7627 21.0805 40.7402 20.8516C40.7176 20.6226 40.605 20.4123 40.4248 20.2659C37.9585 18.2425 34.8014 17.03 31.3665 17.03L31.3634 17.0308ZM47.888 17.6689C47.5839 17.6051 47.2723 17.7102 47.0659 17.9392L33.2964 33.5106C32.7296 34.1525 31.7761 34.2125 31.1304 33.6457L24.6173 27.9134H24.6211C24.2644 27.5981 23.7164 27.6281 23.4011 27.9848C23.0857 28.3451 23.1195 28.8895 23.4799 29.2048L29.993 34.9446C31.3369 36.1272 33.4128 36.0033 34.5954 34.6631L48.3571 19.0917V19.088C48.6762 18.7314 48.6424 18.187 48.2858 17.868C48.1732 17.7666 48.0344 17.699 47.888 17.6689Z" fill="#00C0F1"/>
</g>
<defs>
<clipPath id="clip0_984_87">
<rect width="64" height="64" rx="4" fill="white"/>
</clipPath>
</defs>
</svg>
