<svg width="16" height="20" viewBox="0 0 16 20" fill="none" xmlns="http://www.w3.org/2000/svg">
<path fill-rule="evenodd" clip-rule="evenodd" d="M8 19.1993L8.72114 18.3867C9.53942 17.4504 10.2758 16.5593 10.9303 15.7136L11.4709 15.0005C13.7284 11.9597 14.8571 9.54713 14.8571 7.76275C14.8571 3.95475 11.7874 0.867889 8 0.867889C4.21257 0.867889 1.14285 3.95475 1.14285 7.76275C1.14285 9.54713 2.27161 11.9601 4.52914 15.0016L5.06971 15.7147C6.00405 16.9117 6.98145 18.0732 8 19.1993Z" stroke="#A6B7DB" stroke-width="1.14286" stroke-linecap="round" stroke-linejoin="round"/>
<path d="M8 10.5822C9.57795 10.5822 10.8571 9.30299 10.8571 7.72503C10.8571 6.14708 9.57795 4.86789 8 4.86789C6.42204 4.86789 5.14285 6.14708 5.14285 7.72503C5.14285 9.30299 6.42204 10.5822 8 10.5822Z" stroke="#A6B7DB" stroke-width="1.14286" stroke-linecap="round" stroke-linejoin="round"/>
</svg>
