<svg width="48" height="48" viewBox="0 0 48 48" fill="none" xmlns="http://www.w3.org/2000/svg">
<path fill-rule="evenodd" clip-rule="evenodd" d="M24.494 41.938C26.7942 39.8508 28.9231 37.5821 30.86 35.154C34.94 30.028 37.422 24.974 37.59 20.48C37.6565 18.6536 37.3542 16.8325 36.7011 15.1256C36.048 13.4186 35.0576 11.8608 33.789 10.5452C32.5204 9.22956 30.9996 8.18313 29.3176 7.4684C27.6355 6.75368 25.8266 6.38531 23.999 6.38531C22.1714 6.38531 20.3625 6.75368 18.6804 7.4684C16.9984 8.18313 15.4776 9.22956 14.209 10.5452C12.9404 11.8608 11.95 13.4186 11.2969 15.1256C10.6438 16.8325 10.3415 18.6536 10.408 20.48C10.578 24.974 13.062 30.028 17.14 35.154C19.0769 37.5821 21.2058 39.8508 23.506 41.938C23.7273 42.138 23.892 42.2833 24 42.374L24.494 41.938ZM22.524 44.268C22.524 44.268 8 32.036 8 20C8 15.7565 9.68571 11.6869 12.6863 8.68629C15.6869 5.68571 19.7565 4 24 4C28.2435 4 32.3131 5.68571 35.3137 8.68629C38.3143 11.6869 40 15.7565 40 20C40 32.036 25.476 44.268 25.476 44.268C24.668 45.012 23.338 45.004 22.524 44.268ZM24 25.6C25.4852 25.6 26.9096 25.01 27.9598 23.9598C29.01 22.9096 29.6 21.4852 29.6 20C29.6 18.5148 29.01 17.0904 27.9598 16.0402C26.9096 14.99 25.4852 14.4 24 14.4C22.5148 14.4 21.0904 14.99 20.0402 16.0402C18.99 17.0904 18.4 18.5148 18.4 20C18.4 21.4852 18.99 22.9096 20.0402 23.9598C21.0904 25.01 22.5148 25.6 24 25.6ZM24 28C21.8783 28 19.8434 27.1571 18.3431 25.6569C16.8429 24.1566 16 22.1217 16 20C16 17.8783 16.8429 15.8434 18.3431 14.3431C19.8434 12.8429 21.8783 12 24 12C26.1217 12 28.1566 12.8429 29.6569 14.3431C31.1571 15.8434 32 17.8783 32 20C32 22.1217 31.1571 24.1566 29.6569 25.6569C28.1566 27.1571 26.1217 28 24 28Z" fill="url(#paint0_linear_1588_2339)"/>
<defs>
<linearGradient id="paint0_linear_1588_2339" x1="8" y1="24.471" x2="40" y2="24.471" gradientUnits="userSpaceOnUse">
<stop stop-color="#00FFF0"/>
<stop offset="0.292361" stop-color="#588DFF"/>
<stop offset="0.689398" stop-color="#FB537B"/>
<stop offset="1" stop-color="#F9AF7C"/>
</linearGradient>
</defs>
</svg>
