<svg width="64" height="65" viewBox="0 0 64 65" fill="none" xmlns="http://www.w3.org/2000/svg">
<path fill-rule="evenodd" clip-rule="evenodd" d="M30.6665 51.8381C30.6665 52.9426 31.5619 53.8381 32.6665 53.8381C33.7711 53.8381 34.6665 52.9426 34.6665 51.8381V35.1714H51.3332C52.4377 35.1714 53.3332 34.276 53.3332 33.1714C53.3332 32.0668 52.4377 31.1714 51.3332 31.1714H34.6665V13.1714C34.6665 12.0668 33.7711 11.1714 32.6665 11.1714C31.5619 11.1714 30.6665 12.0668 30.6665 13.1714V31.1714H12.6665C11.5619 31.1714 10.6665 32.0668 10.6665 33.1714C10.6665 34.276 11.5619 35.1714 12.6665 35.1714H30.6665V51.8381Z" fill="white"/>
</svg>
