<svg width="48" height="48" viewBox="0 0 48 48" fill="none" xmlns="http://www.w3.org/2000/svg">
<path d="M16.25 4C15.1228 4 14.0418 4.44777 13.2448 5.2448C12.4478 6.04183 12 7.12283 12 8.25V39.75C12 40.8772 12.4478 41.9582 13.2448 42.7552C14.0418 43.5522 15.1228 44 16.25 44H31.75C32.8772 44 33.9582 43.5522 34.7552 42.7552C35.5522 41.9582 36 40.8772 36 39.75V8.25C36 7.12283 35.5522 6.04183 34.7552 5.2448C33.9582 4.44777 32.8772 4 31.75 4H16.25ZM14.5 8.25C14.5 7.284 15.284 6.5 16.25 6.5H31.75C32.717 6.5 33.5 7.284 33.5 8.25V39.75C33.5 40.2141 33.3156 40.6592 32.9874 40.9874C32.6593 41.3156 32.2141 41.5 31.75 41.5H16.25C15.7859 41.5 15.3408 41.3156 15.0126 40.9874C14.6844 40.6592 14.5 40.2141 14.5 39.75V8.25ZM21.25 35.5C20.9185 35.5 20.6005 35.6317 20.3661 35.8661C20.1317 36.1005 20 36.4185 20 36.75C20 37.0815 20.1317 37.3995 20.3661 37.6339C20.6005 37.8683 20.9185 38 21.25 38H26.75C27.0815 38 27.3995 37.8683 27.6339 37.6339C27.8683 37.3995 28 37.0815 28 36.75C28 36.4185 27.8683 36.1005 27.6339 35.8661C27.3995 35.6317 27.0815 35.5 26.75 35.5H21.25Z" fill="#D69D00"/>
</svg>
